<svg id="visual" viewBox="0 0 1920 1080" width="1920" height="1080" xmlns="http://www.w3.org/2000/svg" xmlns:xlink="http://www.w3.org/1999/xlink" version="1.1"><rect x="0" y="0" width="1920" height="1080" fill="#0ef6cc"></rect><g transform="translate(925.1794029167143 507.0590208683905)"><path d="M484.5 -743.3C609.2 -673.7 678.9 -507.8 789.5 -339C900 -170.3 1051.3 1.3 1067 180C1082.6 358.7 962.7 544.4 804.9 661C647.1 777.5 451.6 824.8 269.9 843.6C88.3 862.3 -79.5 852.3 -265.4 831.1C-451.3 809.8 -655.3 777.2 -787.3 661.7C-919.3 546.2 -979.3 347.8 -994.8 151.2C-1010.3 -45.4 -981.4 -240.1 -881.1 -378.6C-780.9 -517.1 -609.4 -599.3 -450.7 -653.3C-291.9 -707.4 -146 -733.4 16.9 -759.8C179.9 -786.1 359.7 -812.8 484.5 -743.3" fill="#1b2223"></path></g></svg>